<svg width="116" height="25" viewBox="0 0 116 25" fill="none" xmlns="http://www.w3.org/2000/svg">
<g clip-path="url(#clip0)">
<rect x="8" y="4" width="8" height="7" fill="black"/>
<rect y="17" width="25" height="6" fill="black"/>
<path d="M37.5684 2.04688L40.125 9.26562L42.668 2.04688H45.3613V12H43.3037V9.2793L43.5088 4.58301L40.8223 12H39.4141L36.7344 4.58984L36.9395 9.2793V12H34.8887V2.04688H37.5684ZM49.7842 9.2041L51.1514 4.60352H53.2705L50.2969 13.1484L50.1328 13.5381C49.6908 14.5042 48.9616 14.9873 47.9453 14.9873C47.6582 14.9873 47.3665 14.944 47.0703 14.8574V13.3604L47.3711 13.3672C47.7448 13.3672 48.0228 13.3102 48.2051 13.1963C48.3919 13.0824 48.5378 12.8932 48.6426 12.6289L48.875 12.0205L46.2842 4.60352H48.4102L49.7842 9.2041ZM65.1992 2.04688V8.60254C65.1992 9.69173 64.8574 10.5531 64.1738 11.1865C63.4948 11.82 62.5651 12.1367 61.3848 12.1367C60.2227 12.1367 59.2998 11.8291 58.6162 11.2139C57.9326 10.5986 57.584 9.75326 57.5703 8.67773V2.04688H59.6211V8.61621C59.6211 9.2679 59.776 9.74414 60.0859 10.0449C60.4004 10.3411 60.8333 10.4893 61.3848 10.4893C62.5378 10.4893 63.1234 9.88314 63.1416 8.6709V2.04688H65.1992ZM68.5693 4.60352L68.6309 5.45801C69.1595 4.7972 69.8682 4.4668 70.7568 4.4668C71.5407 4.4668 72.124 4.69694 72.5068 5.15723C72.8896 5.61751 73.0856 6.30566 73.0947 7.22168V12H71.1191V7.26953C71.1191 6.85026 71.028 6.5472 70.8457 6.36035C70.6634 6.16895 70.3604 6.07324 69.9365 6.07324C69.3805 6.07324 68.9635 6.31022 68.6855 6.78418V12H66.71V4.60352H68.5693ZM78.6045 9.95605C78.6045 9.71452 78.4837 9.52539 78.2422 9.38867C78.0052 9.2474 77.6224 9.12207 77.0938 9.0127C75.3346 8.64355 74.4551 7.89616 74.4551 6.77051C74.4551 6.11426 74.7262 5.56738 75.2686 5.12988C75.8154 4.68783 76.5286 4.4668 77.4082 4.4668C78.347 4.4668 79.0967 4.68783 79.6572 5.12988C80.2223 5.57194 80.5049 6.14616 80.5049 6.85254H78.5293C78.5293 6.56999 78.4382 6.33757 78.2559 6.15527C78.0736 5.96842 77.7887 5.875 77.4014 5.875C77.0687 5.875 76.8112 5.9502 76.6289 6.10059C76.4466 6.25098 76.3555 6.44238 76.3555 6.6748C76.3555 6.89355 76.458 7.07129 76.6631 7.20801C76.8727 7.34017 77.2236 7.45638 77.7158 7.55664C78.208 7.65234 78.6227 7.76172 78.96 7.88477C80.0036 8.26758 80.5254 8.93066 80.5254 9.87402C80.5254 10.5485 80.236 11.0954 79.6572 11.5146C79.0785 11.9294 78.3311 12.1367 77.415 12.1367C76.7952 12.1367 76.2438 12.0273 75.7607 11.8086C75.2822 11.5853 74.9062 11.2822 74.6328 10.8994C74.3594 10.512 74.2227 10.0951 74.2227 9.64844H76.0957C76.1139 9.99935 76.2438 10.2682 76.4854 10.4551C76.7269 10.6419 77.0505 10.7354 77.4561 10.7354C77.8343 10.7354 78.1191 10.6647 78.3105 10.5234C78.5065 10.3776 78.6045 10.1885 78.6045 9.95605ZM88.4619 8.37012C88.4619 9.50944 88.2021 10.4232 87.6826 11.1113C87.1676 11.7949 86.4704 12.1367 85.5908 12.1367C84.8434 12.1367 84.2396 11.877 83.7793 11.3574V14.8438H81.8037V4.60352H83.6357L83.7041 5.32812C84.1826 4.75391 84.807 4.4668 85.5771 4.4668C86.4886 4.4668 87.1973 4.80404 87.7031 5.47852C88.209 6.15299 88.4619 7.08268 88.4619 8.26758V8.37012ZM86.4863 8.22656C86.4863 7.53841 86.3633 7.00749 86.1172 6.63379C85.8757 6.26009 85.5225 6.07324 85.0576 6.07324C84.4378 6.07324 84.0117 6.31022 83.7793 6.78418V9.8125C84.0208 10.3001 84.4515 10.5439 85.0713 10.5439C86.0146 10.5439 86.4863 9.77148 86.4863 8.22656ZM91.7773 12H89.7949V1.5H91.7773V12ZM97.6973 12C97.6061 11.8223 97.54 11.6012 97.499 11.3369C97.0205 11.8701 96.3984 12.1367 95.6328 12.1367C94.9082 12.1367 94.3066 11.9271 93.8281 11.5078C93.3542 11.0885 93.1172 10.5599 93.1172 9.92188C93.1172 9.13802 93.4066 8.53646 93.9854 8.11719C94.5687 7.69792 95.4095 7.486 96.5078 7.48145H97.417V7.05762C97.417 6.71582 97.3281 6.44238 97.1504 6.2373C96.9772 6.03223 96.7015 5.92969 96.3232 5.92969C95.9906 5.92969 95.7285 6.00944 95.5371 6.16895C95.3503 6.32845 95.2568 6.5472 95.2568 6.8252H93.2812C93.2812 6.39681 93.4134 6.00033 93.6777 5.63574C93.9421 5.27116 94.3158 4.98633 94.7988 4.78125C95.2819 4.57161 95.8242 4.4668 96.4258 4.4668C97.3372 4.4668 98.0596 4.69694 98.5928 5.15723C99.1305 5.61296 99.3994 6.25553 99.3994 7.08496V10.291C99.404 10.9928 99.502 11.5238 99.6934 11.8838V12H97.6973ZM96.0635 10.626C96.3551 10.626 96.624 10.5622 96.8701 10.4346C97.1162 10.3024 97.2985 10.127 97.417 9.9082V8.63672H96.6787C95.6898 8.63672 95.1634 8.97852 95.0996 9.66211L95.0928 9.77832C95.0928 10.0244 95.1794 10.2272 95.3525 10.3867C95.5257 10.5462 95.7627 10.626 96.0635 10.626ZM104.923 9.95605C104.923 9.71452 104.802 9.52539 104.561 9.38867C104.324 9.2474 103.941 9.12207 103.412 9.0127C101.653 8.64355 100.773 7.89616 100.773 6.77051C100.773 6.11426 101.045 5.56738 101.587 5.12988C102.134 4.68783 102.847 4.4668 103.727 4.4668C104.665 4.4668 105.415 4.68783 105.976 5.12988C106.541 5.57194 106.823 6.14616 106.823 6.85254H104.848C104.848 6.56999 104.757 6.33757 104.574 6.15527C104.392 5.96842 104.107 5.875 103.72 5.875C103.387 5.875 103.13 5.9502 102.947 6.10059C102.765 6.25098 102.674 6.44238 102.674 6.6748C102.674 6.89355 102.776 7.07129 102.981 7.20801C103.191 7.34017 103.542 7.45638 104.034 7.55664C104.526 7.65234 104.941 7.76172 105.278 7.88477C106.322 8.26758 106.844 8.93066 106.844 9.87402C106.844 10.5485 106.554 11.0954 105.976 11.5146C105.397 11.9294 104.649 12.1367 103.733 12.1367C103.114 12.1367 102.562 12.0273 102.079 11.8086C101.601 11.5853 101.225 11.2822 100.951 10.8994C100.678 10.512 100.541 10.0951 100.541 9.64844H102.414C102.432 9.99935 102.562 10.2682 102.804 10.4551C103.045 10.6419 103.369 10.7354 103.774 10.7354C104.153 10.7354 104.438 10.6647 104.629 10.5234C104.825 10.3776 104.923 10.1885 104.923 9.95605ZM110.05 5.41016C110.574 4.78125 111.232 4.4668 112.025 4.4668C113.63 4.4668 114.443 5.39876 114.466 7.2627V12H112.49V7.31738C112.49 6.89355 112.399 6.58138 112.217 6.38086C112.035 6.17578 111.731 6.07324 111.308 6.07324C110.729 6.07324 110.31 6.29655 110.05 6.74316V12H108.074V1.5H110.05V5.41016Z" fill="black"/>
<path d="M34.4746 20.5786C34.4746 19.8403 34.6387 19.2529 34.9668 18.8164C35.2979 18.377 35.7461 18.1572 36.3115 18.1572C36.9531 18.1572 37.4424 18.4106 37.7793 18.9175V16.25H38.3022V23H37.8101L37.7881 22.3672C37.4512 22.8477 36.9561 23.0879 36.3027 23.0879C35.7549 23.0879 35.3125 22.8682 34.9756 22.4287C34.6416 21.9863 34.4746 21.3901 34.4746 20.6401V20.5786ZM35.0063 20.6709C35.0063 21.2773 35.1279 21.7563 35.3711 22.1079C35.6143 22.4565 35.957 22.6309 36.3994 22.6309C37.0469 22.6309 37.5068 22.3452 37.7793 21.7739V19.5415C37.5068 18.9233 37.0498 18.6143 36.4082 18.6143C35.9658 18.6143 35.6216 18.7886 35.3755 19.1372C35.1294 19.4829 35.0063 19.9941 35.0063 20.6709ZM41.5278 23.0879C41.1235 23.0879 40.7573 22.9883 40.4292 22.7891C40.104 22.5898 39.8506 22.313 39.6689 21.9585C39.4873 21.6011 39.3965 21.2012 39.3965 20.7588V20.5698C39.3965 20.1128 39.4844 19.7012 39.6602 19.335C39.8389 18.9688 40.0864 18.6816 40.4028 18.4736C40.7192 18.2627 41.062 18.1572 41.4312 18.1572C42.0083 18.1572 42.4653 18.355 42.8022 18.7505C43.1421 19.1431 43.312 19.6807 43.312 20.3633V20.6577H39.9194V20.7588C39.9194 21.2979 40.0732 21.7476 40.3809 22.1079C40.6914 22.4653 41.0811 22.644 41.5498 22.644C41.8311 22.644 42.0786 22.5928 42.2925 22.4902C42.5093 22.3877 42.7056 22.2236 42.8813 21.998L43.2109 22.2485C42.8242 22.8081 42.2632 23.0879 41.5278 23.0879ZM41.4312 18.6055C41.0356 18.6055 40.7017 18.7505 40.4292 19.0405C40.1597 19.3306 39.9956 19.7202 39.937 20.2095H42.7891V20.1523C42.7744 19.6953 42.644 19.3232 42.3979 19.0361C42.1519 18.749 41.8296 18.6055 41.4312 18.6055ZM45.7554 22.2749L47.2012 18.2451H47.7417L45.9663 23H45.54L43.7559 18.2451H44.2964L45.7554 22.2749ZM53.2612 21.0049C53.188 21.6787 52.9463 22.1943 52.5361 22.5518C52.1289 22.9092 51.5854 23.0879 50.9058 23.0879C50.4312 23.0879 50.0107 22.9692 49.6445 22.7319C49.2812 22.4946 49 22.1592 48.8008 21.7256C48.6016 21.2891 48.5005 20.791 48.4976 20.2314V19.4009C48.4976 18.8325 48.5972 18.3286 48.7964 17.8892C48.9956 17.4497 49.2812 17.1113 49.6533 16.874C50.0283 16.6338 50.459 16.5137 50.9453 16.5137C51.6309 16.5137 52.1714 16.6997 52.5669 17.0718C52.9653 17.4409 53.1968 17.9521 53.2612 18.6055H52.7163C52.5815 17.5186 51.9912 16.9751 50.9453 16.9751C50.3652 16.9751 49.9023 17.1919 49.5566 17.6255C49.2139 18.0591 49.0425 18.6582 49.0425 19.4229V20.2051C49.0425 20.9434 49.2095 21.5322 49.5435 21.9717C49.8804 22.4111 50.3345 22.6309 50.9058 22.6309C51.4712 22.6309 51.8975 22.4961 52.1846 22.2266C52.4717 21.9541 52.6489 21.5469 52.7163 21.0049H53.2612ZM54.9751 19.0493C55.1479 18.7651 55.3691 18.5454 55.6387 18.3901C55.9082 18.2349 56.2026 18.1572 56.522 18.1572C57.0317 18.1572 57.4111 18.3008 57.6602 18.5879C57.9092 18.875 58.0352 19.3057 58.0381 19.8799V23H57.5151V19.8755C57.5122 19.4507 57.4214 19.1343 57.2427 18.9263C57.0669 18.7183 56.7842 18.6143 56.3945 18.6143C56.0693 18.6143 55.7808 18.7168 55.5288 18.9219C55.2798 19.124 55.0952 19.3979 54.9751 19.7437V23H54.4521V16.25H54.9751V19.0493ZM62.3931 23C62.3403 22.8506 62.3066 22.6294 62.292 22.3364C62.1074 22.5767 61.8716 22.7627 61.5845 22.8945C61.3003 23.0234 60.9985 23.0879 60.6792 23.0879C60.2222 23.0879 59.8516 22.9604 59.5674 22.7056C59.2861 22.4507 59.1455 22.1284 59.1455 21.7388C59.1455 21.2759 59.3374 20.9097 59.7212 20.6401C60.1079 20.3706 60.6455 20.2358 61.334 20.2358H62.2876V19.6953C62.2876 19.3555 62.1821 19.0889 61.9712 18.8955C61.7632 18.6992 61.4585 18.6011 61.0571 18.6011C60.6909 18.6011 60.3877 18.6948 60.1475 18.8823C59.9072 19.0698 59.7871 19.2954 59.7871 19.5591L59.2598 19.5547C59.2598 19.1768 59.4355 18.8501 59.7871 18.5747C60.1387 18.2964 60.5708 18.1572 61.0835 18.1572C61.6138 18.1572 62.0312 18.2905 62.3359 18.5571C62.6436 18.8208 62.8018 19.1899 62.8105 19.6646V21.9146C62.8105 22.3745 62.8589 22.7188 62.9556 22.9473V23H62.3931ZM60.7407 22.6221C61.0923 22.6221 61.4058 22.5371 61.6812 22.3672C61.9595 22.1973 62.1616 21.9702 62.2876 21.686V20.6401H61.3472C60.8228 20.646 60.4126 20.7427 60.1167 20.9302C59.8208 21.1147 59.6729 21.3696 59.6729 21.6948C59.6729 21.9614 59.771 22.1826 59.9673 22.3584C60.1665 22.5342 60.4243 22.6221 60.7407 22.6221ZM64.8057 23H64.2783V16.25H64.8057V23ZM66.8271 23H66.2998V16.25H66.8271V23ZM70.1011 23.0879C69.6968 23.0879 69.3306 22.9883 69.0024 22.7891C68.6772 22.5898 68.4238 22.313 68.2422 21.9585C68.0605 21.6011 67.9697 21.2012 67.9697 20.7588V20.5698C67.9697 20.1128 68.0576 19.7012 68.2334 19.335C68.4121 18.9688 68.6597 18.6816 68.9761 18.4736C69.2925 18.2627 69.6353 18.1572 70.0044 18.1572C70.5815 18.1572 71.0386 18.355 71.3755 18.7505C71.7153 19.1431 71.8853 19.6807 71.8853 20.3633V20.6577H68.4927V20.7588C68.4927 21.2979 68.6465 21.7476 68.9541 22.1079C69.2646 22.4653 69.6543 22.644 70.123 22.644C70.4043 22.644 70.6519 22.5928 70.8657 22.4902C71.0825 22.3877 71.2788 22.2236 71.4546 21.998L71.7842 22.2485C71.3975 22.8081 70.8364 23.0879 70.1011 23.0879ZM70.0044 18.6055C69.6089 18.6055 69.2749 18.7505 69.0024 19.0405C68.7329 19.3306 68.5688 19.7202 68.5103 20.2095H71.3623V20.1523C71.3477 19.6953 71.2173 19.3232 70.9712 19.0361C70.7251 18.749 70.4028 18.6055 70.0044 18.6055ZM73.4102 18.2451L73.4277 19.0581C73.6064 18.7651 73.8291 18.5425 74.0957 18.3901C74.3623 18.2349 74.6567 18.1572 74.979 18.1572C75.4888 18.1572 75.8682 18.3008 76.1172 18.5879C76.3662 18.875 76.4922 19.3057 76.4951 19.8799V23H75.9722V19.8755C75.9692 19.4507 75.8784 19.1343 75.6997 18.9263C75.5239 18.7183 75.2412 18.6143 74.8516 18.6143C74.5264 18.6143 74.2378 18.7168 73.9858 18.9219C73.7368 19.124 73.5522 19.3979 73.4321 19.7437V23H72.9092V18.2451H73.4102ZM77.6465 20.5786C77.6465 19.8345 77.8105 19.2456 78.1387 18.812C78.4697 18.3755 78.918 18.1572 79.4834 18.1572C80.1309 18.1572 80.623 18.415 80.96 18.9307L80.9863 18.2451H81.4785V22.9033C81.4785 23.5156 81.3071 24.0005 80.9644 24.3579C80.6216 24.7153 80.1572 24.894 79.5713 24.894C79.2402 24.894 78.9238 24.8193 78.6221 24.6699C78.3232 24.5234 78.0874 24.3271 77.9146 24.0811L78.209 23.7646C78.5811 24.2217 79.0234 24.4502 79.5361 24.4502C79.9756 24.4502 80.3184 24.3198 80.5645 24.0591C80.8105 23.8013 80.938 23.4424 80.9468 22.9824V22.3848C80.6099 22.8535 80.1191 23.0879 79.4746 23.0879C78.9238 23.0879 78.4814 22.8682 78.1475 22.4287C77.8135 21.9893 77.6465 21.396 77.6465 20.6489V20.5786ZM78.1782 20.6709C78.1782 21.2773 78.2998 21.7563 78.543 22.1079C78.7861 22.4565 79.1289 22.6309 79.5713 22.6309C80.2188 22.6309 80.6772 22.3408 80.9468 21.7607V19.5503C80.8237 19.2456 80.6465 19.0142 80.415 18.856C80.1836 18.6948 79.9053 18.6143 79.5801 18.6143C79.1377 18.6143 78.7935 18.7886 78.5474 19.1372C78.3013 19.4829 78.1782 19.9941 78.1782 20.6709ZM84.6909 23.0879C84.2866 23.0879 83.9204 22.9883 83.5923 22.7891C83.2671 22.5898 83.0137 22.313 82.832 21.9585C82.6504 21.6011 82.5596 21.2012 82.5596 20.7588V20.5698C82.5596 20.1128 82.6475 19.7012 82.8232 19.335C83.002 18.9688 83.2495 18.6816 83.5659 18.4736C83.8823 18.2627 84.2251 18.1572 84.5942 18.1572C85.1714 18.1572 85.6284 18.355 85.9653 18.7505C86.3052 19.1431 86.4751 19.6807 86.4751 20.3633V20.6577H83.0825V20.7588C83.0825 21.2979 83.2363 21.7476 83.5439 22.1079C83.8545 22.4653 84.2441 22.644 84.7129 22.644C84.9941 22.644 85.2417 22.5928 85.4556 22.4902C85.6724 22.3877 85.8687 22.2236 86.0444 21.998L86.374 22.2485C85.9873 22.8081 85.4263 23.0879 84.6909 23.0879ZM84.5942 18.6055C84.1987 18.6055 83.8647 18.7505 83.5923 19.0405C83.3228 19.3306 83.1587 19.7202 83.1001 20.2095H85.9521V20.1523C85.9375 19.6953 85.8071 19.3232 85.561 19.0361C85.3149 18.749 84.9927 18.6055 84.5942 18.6055ZM90.3467 21.7915C90.3467 21.5308 90.2412 21.3213 90.0303 21.1631C89.8223 21.0049 89.5073 20.8818 89.0854 20.7939C88.6636 20.7031 88.3354 20.6006 88.1011 20.4863C87.8696 20.3691 87.6968 20.2271 87.5825 20.0601C87.4712 19.8931 87.4155 19.6909 87.4155 19.4536C87.4155 19.0786 87.5723 18.7695 87.8857 18.5264C88.1992 18.2803 88.6006 18.1572 89.0898 18.1572C89.6201 18.1572 90.0449 18.2891 90.3643 18.5527C90.6865 18.8135 90.8477 19.1548 90.8477 19.5767H90.3203C90.3203 19.2983 90.2031 19.0669 89.9688 18.8823C89.7373 18.6978 89.4443 18.6055 89.0898 18.6055C88.7441 18.6055 88.4658 18.6831 88.2549 18.8384C88.0469 18.9907 87.9429 19.1899 87.9429 19.436C87.9429 19.6733 88.0293 19.8579 88.2021 19.9897C88.3779 20.1187 88.6958 20.2373 89.1558 20.3457C89.6187 20.4541 89.9644 20.5698 90.1929 20.6929C90.4243 20.8159 90.5957 20.9639 90.707 21.1367C90.8184 21.3096 90.874 21.519 90.874 21.7651C90.874 22.1665 90.7114 22.4873 90.3862 22.7275C90.064 22.9678 89.6421 23.0879 89.1206 23.0879C88.5669 23.0879 88.1172 22.9546 87.7715 22.688C87.4287 22.4185 87.2573 22.0786 87.2573 21.6685H87.7847C87.8052 21.9761 87.9341 22.2163 88.1714 22.3892C88.4116 22.5591 88.728 22.644 89.1206 22.644C89.4868 22.644 89.7827 22.5635 90.0083 22.4023C90.2339 22.2412 90.3467 22.0376 90.3467 21.7915ZM92.0122 22.6836C92.0122 22.5811 92.0444 22.4946 92.1089 22.4243C92.1763 22.3511 92.2686 22.3145 92.3857 22.3145C92.5029 22.3145 92.5952 22.3511 92.6626 22.4243C92.73 22.4946 92.7637 22.5811 92.7637 22.6836C92.7637 22.7861 92.73 22.8711 92.6626 22.9385C92.5952 23.0029 92.5029 23.0352 92.3857 23.0352C92.2686 23.0352 92.1763 23.0029 92.1089 22.9385C92.0444 22.8711 92.0122 22.7861 92.0122 22.6836ZM94.8027 23H94.2754V18.2451H94.8027V23ZM94.1831 16.8696C94.1831 16.77 94.2153 16.6865 94.2798 16.6191C94.3442 16.5488 94.4321 16.5137 94.5435 16.5137C94.6548 16.5137 94.7427 16.5488 94.8071 16.6191C94.8745 16.6865 94.9082 16.77 94.9082 16.8696C94.9082 16.9692 94.8745 17.0527 94.8071 17.1201C94.7427 17.1875 94.6548 17.2212 94.5435 17.2212C94.4321 17.2212 94.3442 17.1875 94.2798 17.1201C94.2153 17.0527 94.1831 16.9692 94.1831 16.8696ZM95.9453 20.5522C95.9453 20.0952 96.0332 19.6836 96.209 19.3174C96.3877 18.9512 96.6382 18.667 96.9604 18.4648C97.2856 18.2598 97.6533 18.1572 98.0635 18.1572C98.6963 18.1572 99.209 18.3799 99.6016 18.8252C99.9941 19.2676 100.19 19.855 100.19 20.5874V20.6973C100.19 21.1572 100.101 21.5718 99.9224 21.9409C99.7466 22.3071 99.4976 22.5898 99.1753 22.7891C98.853 22.9883 98.4854 23.0879 98.0723 23.0879C97.4424 23.0879 96.9297 22.8667 96.5342 22.4243C96.1416 21.979 95.9453 21.3901 95.9453 20.6577V20.5522ZM96.4727 20.6973C96.4727 21.2656 96.6191 21.7329 96.9121 22.0991C97.208 22.4624 97.5947 22.644 98.0723 22.644C98.5469 22.644 98.9307 22.4624 99.2236 22.0991C99.5195 21.7329 99.6675 21.251 99.6675 20.6533V20.5522C99.6675 20.189 99.6001 19.8564 99.4653 19.5547C99.3306 19.2529 99.1416 19.02 98.8984 18.856C98.6553 18.689 98.377 18.6055 98.0635 18.6055C97.5947 18.6055 97.2124 18.79 96.9165 19.1592C96.6206 19.5254 96.4727 20.0059 96.4727 20.6006V20.6973Z" fill="black"/>
</g>
<defs>
<clipPath id="clip0">
<rect width="116" height="25" fill="white"/>
</clipPath>
</defs>
</svg>
